@startuml
note as command
中介者模式包含以下主要角色。
抽象中介者（Mediator）角色：它是中介者的接口，提供了同事对象注册与转发同事对象信息的抽象方法。
具体中介者（ConcreteMediator）角色：实现中介者接口，定义一个 List 来管理同事对象，协调各个同事角色之间的交互关系，因此它依赖于同事角色。
抽象同事类（Colleague）角色：定义同事类的接口，保存中介者对象，提供同事对象交互的抽象方法，实现所有相互影响的同事类的公共功能。
具体同事类（Concrete Colleague）角色：是抽象同事类的实现者，当需要与其他同事对象交互时，由中介者对象负责后续的交互。
end note
abstract Mediator{
// 抽象中介者
+ register(Colleague colleague):void
+ replay(Colleague colleague):void
}
class ConcreteMediator{
// 具体中介者
- colleagues:List<Colleague>
+ register(Colleague colleague):void
+ replay(Colleague colleague):void
}

abstract Colleague{
// 抽象同事类
- mediator:Mediator
+ setMediator(Mediator mediator):void
+ receive():void
+ send():void
}

class ConcreteColleague1{
// 具体同事类
+ receive():void
+ send():void
}

class ConcreteColleague2{
// 具体同事类
+ receive():void
+ send():void
}

ConcreteMediator -up-|> Mediator
ConcreteColleague1 -up-|> Colleague
ConcreteColleague2 -up-|> Colleague

Mediator -left-o Colleague
Colleague -right-o ConcreteMediator
@enduml